<mxfile host="app.diagrams.net" modified="2022-05-12T20:42:54.616Z" agent="5.0 (X11; Linux x86_64) AppleWebKit/537.36 (KHTML, like Gecko) Chrome/101.0.4951.54 Safari/537.36" etag="nkUBvCP1rz16YIiM1h0L" version="18.0.3" type="github">
  <diagram id="i7yeh4d4ZdiU1BZZwx7M" name="Page-1">
    <mxGraphModel dx="1371" dy="555" grid="1" gridSize="10" guides="1" tooltips="1" connect="1" arrows="1" fold="1" page="1" pageScale="1" pageWidth="827" pageHeight="1169" math="0" shadow="0">
      <root>
        <mxCell id="0" />
        <mxCell id="1" parent="0" />
        <mxCell id="1981QRrkCxexKIx6ydDc-35" value="" style="rounded=0;whiteSpace=wrap;html=1;" vertex="1" parent="1">
          <mxGeometry x="692.5" y="295" width="120" height="160" as="geometry" />
        </mxCell>
        <mxCell id="1981QRrkCxexKIx6ydDc-34" value="" style="rounded=0;whiteSpace=wrap;html=1;" vertex="1" parent="1">
          <mxGeometry x="180" y="40" width="400" height="450" as="geometry" />
        </mxCell>
        <mxCell id="1981QRrkCxexKIx6ydDc-3" value="" style="rounded=0;whiteSpace=wrap;html=1;" vertex="1" parent="1">
          <mxGeometry x="260" y="160" width="80" height="300" as="geometry" />
        </mxCell>
        <mxCell id="1981QRrkCxexKIx6ydDc-5" value="" style="whiteSpace=wrap;html=1;aspect=fixed;" vertex="1" parent="1">
          <mxGeometry x="460" y="160" width="50" height="50" as="geometry" />
        </mxCell>
        <mxCell id="1981QRrkCxexKIx6ydDc-7" value="" style="whiteSpace=wrap;html=1;aspect=fixed;" vertex="1" parent="1">
          <mxGeometry x="462.5" y="345" width="50" height="50" as="geometry" />
        </mxCell>
        <mxCell id="1981QRrkCxexKIx6ydDc-8" value="" style="whiteSpace=wrap;html=1;aspect=fixed;" vertex="1" parent="1">
          <mxGeometry x="460" y="410" width="50" height="50" as="geometry" />
        </mxCell>
        <mxCell id="1981QRrkCxexKIx6ydDc-26" value="" style="endArrow=classic;startArrow=classic;html=1;rounded=0;exitX=0.5;exitY=0;exitDx=0;exitDy=0;" edge="1" parent="1" source="1981QRrkCxexKIx6ydDc-3" target="1981QRrkCxexKIx6ydDc-39">
          <mxGeometry width="50" height="50" relative="1" as="geometry">
            <mxPoint x="310" y="170" as="sourcePoint" />
            <mxPoint x="320" y="100" as="targetPoint" />
          </mxGeometry>
        </mxCell>
        <mxCell id="1981QRrkCxexKIx6ydDc-27" value="" style="endArrow=classic;startArrow=classic;html=1;rounded=0;entryX=0.5;entryY=1;entryDx=0;entryDy=0;exitX=0.5;exitY=0;exitDx=0;exitDy=0;" edge="1" parent="1" source="1981QRrkCxexKIx6ydDc-5">
          <mxGeometry width="50" height="50" relative="1" as="geometry">
            <mxPoint x="330" y="170" as="sourcePoint" />
            <mxPoint x="485" y="100" as="targetPoint" />
          </mxGeometry>
        </mxCell>
        <mxCell id="1981QRrkCxexKIx6ydDc-28" value="" style="endArrow=classic;startArrow=classic;html=1;rounded=0;entryX=0;entryY=0.5;entryDx=0;entryDy=0;exitX=1;exitY=0.25;exitDx=0;exitDy=0;" edge="1" parent="1" source="1981QRrkCxexKIx6ydDc-3" target="1981QRrkCxexKIx6ydDc-5">
          <mxGeometry width="50" height="50" relative="1" as="geometry">
            <mxPoint x="340" y="180" as="sourcePoint" />
            <mxPoint x="340" y="120" as="targetPoint" />
            <Array as="points">
              <mxPoint x="400" y="235" />
              <mxPoint x="400" y="185" />
            </Array>
          </mxGeometry>
        </mxCell>
        <mxCell id="1981QRrkCxexKIx6ydDc-29" value="" style="endArrow=classic;startArrow=classic;html=1;rounded=0;entryX=0;entryY=0.5;entryDx=0;entryDy=0;exitX=1;exitY=0.5;exitDx=0;exitDy=0;" edge="1" parent="1" source="1981QRrkCxexKIx6ydDc-3" target="1981QRrkCxexKIx6ydDc-7">
          <mxGeometry width="50" height="50" relative="1" as="geometry">
            <mxPoint x="350" y="190" as="sourcePoint" />
            <mxPoint x="350" y="130" as="targetPoint" />
            <Array as="points">
              <mxPoint x="390" y="310" />
              <mxPoint x="390" y="370" />
            </Array>
          </mxGeometry>
        </mxCell>
        <mxCell id="1981QRrkCxexKIx6ydDc-30" value="" style="endArrow=classic;startArrow=classic;html=1;rounded=0;entryX=0;entryY=0.5;entryDx=0;entryDy=0;exitX=1;exitY=0.75;exitDx=0;exitDy=0;" edge="1" parent="1" source="1981QRrkCxexKIx6ydDc-3" target="1981QRrkCxexKIx6ydDc-8">
          <mxGeometry width="50" height="50" relative="1" as="geometry">
            <mxPoint x="360" y="200" as="sourcePoint" />
            <mxPoint x="360" y="140" as="targetPoint" />
            <Array as="points">
              <mxPoint x="400" y="385" />
              <mxPoint x="400" y="435" />
            </Array>
          </mxGeometry>
        </mxCell>
        <mxCell id="1981QRrkCxexKIx6ydDc-31" value="" style="endArrow=classic;startArrow=classic;html=1;rounded=0;exitX=1;exitY=0.5;exitDx=0;exitDy=0;" edge="1" parent="1" source="1981QRrkCxexKIx6ydDc-7" target="1981QRrkCxexKIx6ydDc-42">
          <mxGeometry width="50" height="50" relative="1" as="geometry">
            <mxPoint x="370" y="210" as="sourcePoint" />
            <mxPoint x="730" y="360" as="targetPoint" />
          </mxGeometry>
        </mxCell>
        <mxCell id="1981QRrkCxexKIx6ydDc-36" value="Heroku" style="text;html=1;strokeColor=none;fillColor=none;align=center;verticalAlign=middle;whiteSpace=wrap;rounded=0;" vertex="1" parent="1">
          <mxGeometry x="692.5" y="295" width="60" height="30" as="geometry" />
        </mxCell>
        <mxCell id="1981QRrkCxexKIx6ydDc-37" value="VPS" style="text;html=1;strokeColor=none;fillColor=none;align=center;verticalAlign=middle;whiteSpace=wrap;rounded=0;" vertex="1" parent="1">
          <mxGeometry x="180" y="40" width="60" height="30" as="geometry" />
        </mxCell>
        <mxCell id="1981QRrkCxexKIx6ydDc-39" value="" style="sketch=0;outlineConnect=0;fontColor=#232F3E;gradientColor=none;fillColor=#2E27AD;strokeColor=none;dashed=0;verticalLabelPosition=bottom;verticalAlign=top;align=center;html=1;fontSize=12;fontStyle=0;aspect=fixed;pointerEvents=1;shape=mxgraph.aws4.rds_postgresql_instance;" vertex="1" parent="1">
          <mxGeometry x="275" y="50" width="50" height="50" as="geometry" />
        </mxCell>
        <mxCell id="1981QRrkCxexKIx6ydDc-41" value="" style="sketch=0;outlineConnect=0;fontColor=#232F3E;gradientColor=none;fillColor=#2E27AD;strokeColor=none;dashed=0;verticalLabelPosition=bottom;verticalAlign=top;align=center;html=1;fontSize=12;fontStyle=0;aspect=fixed;pointerEvents=1;shape=mxgraph.aws4.rds_postgresql_instance;" vertex="1" parent="1">
          <mxGeometry x="460" y="50" width="50" height="50" as="geometry" />
        </mxCell>
        <mxCell id="1981QRrkCxexKIx6ydDc-43" value="" style="shape=image;imageAspect=0;aspect=fixed;verticalLabelPosition=bottom;verticalAlign=top;image=https://camo.githubusercontent.com/e1ec999ec2b4556e68a301d67c645535ab51650fd68afc3b1a9c95e1c5515960/68747470733a2f2f6b6f6e6768712e636f6d2f77702d636f6e74656e742f75706c6f6164732f323031382f30352f6b6f6e672d6c6f676f2d6769746875622d726561646d652e706e67;" vertex="1" parent="1">
          <mxGeometry x="260" y="297.07" width="80" height="25.85" as="geometry" />
        </mxCell>
        <mxCell id="1981QRrkCxexKIx6ydDc-44" value="" style="shape=image;imageAspect=0;aspect=fixed;verticalLabelPosition=bottom;verticalAlign=top;image=https://ramonduraes.net/wp-content/uploads/2021/04/key.png;" vertex="1" parent="1">
          <mxGeometry x="460" y="160" width="50" height="50" as="geometry" />
        </mxCell>
        <mxCell id="1981QRrkCxexKIx6ydDc-66" value="desktop" style="sketch=0;outlineConnect=0;gradientColor=none;fontColor=#545B64;strokeColor=none;fillColor=#000000;dashed=0;verticalLabelPosition=bottom;verticalAlign=top;align=center;html=1;fontSize=12;fontStyle=0;aspect=fixed;shape=mxgraph.aws4.illustration_desktop;pointerEvents=1" vertex="1" parent="1">
          <mxGeometry x="80" y="279.99" width="65.93" height="60" as="geometry" />
        </mxCell>
        <mxCell id="1981QRrkCxexKIx6ydDc-67" value="" style="endArrow=classic;startArrow=classic;html=1;rounded=0;exitX=0;exitY=0.5;exitDx=0;exitDy=0;" edge="1" parent="1" source="1981QRrkCxexKIx6ydDc-3" target="1981QRrkCxexKIx6ydDc-66">
          <mxGeometry width="50" height="50" relative="1" as="geometry">
            <mxPoint x="310" y="170" as="sourcePoint" />
            <mxPoint x="310" y="109.93688017468833" as="targetPoint" />
          </mxGeometry>
        </mxCell>
        <mxCell id="1981QRrkCxexKIx6ydDc-69" value="" style="sketch=0;outlineConnect=0;fontColor=#232F3E;gradientColor=none;fillColor=#232F3D;strokeColor=none;dashed=0;verticalLabelPosition=bottom;verticalAlign=top;align=center;html=1;fontSize=12;fontStyle=0;aspect=fixed;pointerEvents=1;shape=mxgraph.aws4.mobile_client;" vertex="1" parent="1">
          <mxGeometry x="102.98" y="190" width="19.97" height="38" as="geometry" />
        </mxCell>
        <mxCell id="1981QRrkCxexKIx6ydDc-71" value="" style="endArrow=classic;startArrow=classic;html=1;rounded=0;" edge="1" parent="1" source="1981QRrkCxexKIx6ydDc-69" target="1981QRrkCxexKIx6ydDc-66">
          <mxGeometry width="50" height="50" relative="1" as="geometry">
            <mxPoint x="270" y="320" as="sourcePoint" />
            <mxPoint x="155.93000000000006" y="319.9922419832013" as="targetPoint" />
          </mxGeometry>
        </mxCell>
        <mxCell id="1981QRrkCxexKIx6ydDc-74" value="Deck Share Server" style="text;html=1;strokeColor=none;fillColor=none;align=center;verticalAlign=middle;whiteSpace=wrap;rounded=0;fontColor=none;" vertex="1" parent="1">
          <mxGeometry x="460" y="347.5" width="55" height="45" as="geometry" />
        </mxCell>
        <mxCell id="1981QRrkCxexKIx6ydDc-76" value="Deck Server" style="text;html=1;strokeColor=none;fillColor=none;align=center;verticalAlign=middle;whiteSpace=wrap;rounded=0;fontColor=none;" vertex="1" parent="1">
          <mxGeometry x="465" y="410" width="40" height="45" as="geometry" />
        </mxCell>
        <mxCell id="1981QRrkCxexKIx6ydDc-78" value="" style="whiteSpace=wrap;html=1;aspect=fixed;" vertex="1" parent="1">
          <mxGeometry x="460" y="245" width="60" height="60" as="geometry" />
        </mxCell>
        <mxCell id="1981QRrkCxexKIx6ydDc-79" value="Interface&lt;br&gt;Service" style="text;html=1;strokeColor=none;fillColor=none;align=center;verticalAlign=middle;whiteSpace=wrap;rounded=0;fontColor=none;" vertex="1" parent="1">
          <mxGeometry x="460" y="260" width="60" height="30" as="geometry" />
        </mxCell>
        <mxCell id="1981QRrkCxexKIx6ydDc-81" value="" style="endArrow=classic;startArrow=classic;html=1;rounded=0;fontColor=none;entryX=0;entryY=0.5;entryDx=0;entryDy=0;exitX=1.026;exitY=0.387;exitDx=0;exitDy=0;exitPerimeter=0;" edge="1" parent="1" source="1981QRrkCxexKIx6ydDc-3" target="1981QRrkCxexKIx6ydDc-79">
          <mxGeometry width="50" height="50" relative="1" as="geometry">
            <mxPoint x="350" y="310" as="sourcePoint" />
            <mxPoint x="400" y="260" as="targetPoint" />
          </mxGeometry>
        </mxCell>
        <mxCell id="1981QRrkCxexKIx6ydDc-42" value="" style="sketch=0;outlineConnect=0;fontColor=#232F3E;gradientColor=none;fillColor=#2E27AD;strokeColor=none;dashed=0;verticalLabelPosition=bottom;verticalAlign=top;align=center;html=1;fontSize=12;fontStyle=0;aspect=fixed;pointerEvents=1;shape=mxgraph.aws4.rds_postgresql_instance;" vertex="1" parent="1">
          <mxGeometry x="740" y="339.99" width="50" height="50" as="geometry" />
        </mxCell>
        <mxCell id="1981QRrkCxexKIx6ydDc-84" value="" style="endArrow=classic;startArrow=classic;html=1;rounded=0;exitX=1;exitY=0.5;exitDx=0;exitDy=0;" edge="1" parent="1" source="1981QRrkCxexKIx6ydDc-8" target="1981QRrkCxexKIx6ydDc-42">
          <mxGeometry width="50" height="50" relative="1" as="geometry">
            <mxPoint x="540" y="459.51" as="sourcePoint" />
            <mxPoint x="790" y="430" as="targetPoint" />
            <Array as="points">
              <mxPoint x="765" y="430" />
            </Array>
          </mxGeometry>
        </mxCell>
      </root>
    </mxGraphModel>
  </diagram>
</mxfile>
